<mxfile host="Electron" modified="2024-05-31T07:34:59.670Z" agent="Mozilla/5.0 (X11; Linux x86_64) AppleWebKit/537.36 (KHTML, like Gecko) draw.io/24.1.0 Chrome/120.0.6099.109 Electron/28.1.0 Safari/537.36" etag="cmnN-38pnmb77QNJ2GZo" version="24.1.0" type="device">
  <diagram id="wcmjMXEbXOUI_5ojHGwT" name="Seite-1">
    <mxGraphModel dx="2074" dy="1138" grid="1" gridSize="10" guides="1" tooltips="1" connect="1" arrows="1" fold="1" page="1" pageScale="1" pageWidth="827" pageHeight="1169" math="0" shadow="0">
      <root>
        <mxCell id="0" />
        <mxCell id="1" parent="0" />
        <mxCell id="OiGLj_DlRbiztUVWyKpy-1" value="login" style="swimlane;fontStyle=1;childLayout=stackLayout;horizontal=1;startSize=26;fillColor=none;horizontalStack=0;resizeParent=1;resizeParentMax=0;resizeLast=0;collapsible=1;marginBottom=0;" parent="1" vertex="1">
          <mxGeometry x="260" y="100" width="140" height="104" as="geometry" />
        </mxCell>
        <mxCell id="OiGLj_DlRbiztUVWyKpy-2" value="session_id : string | null" style="text;strokeColor=none;fillColor=none;align=left;verticalAlign=top;spacingLeft=4;spacingRight=4;overflow=hidden;rotatable=0;points=[[0,0.5],[1,0.5]];portConstraint=eastwest;" parent="OiGLj_DlRbiztUVWyKpy-1" vertex="1">
          <mxGeometry y="26" width="140" height="26" as="geometry" />
        </mxCell>
        <mxCell id="OiGLj_DlRbiztUVWyKpy-3" value="till : integer | null" style="text;strokeColor=none;fillColor=none;align=left;verticalAlign=top;spacingLeft=4;spacingRight=4;overflow=hidden;rotatable=0;points=[[0,0.5],[1,0.5]];portConstraint=eastwest;" parent="OiGLj_DlRbiztUVWyKpy-1" vertex="1">
          <mxGeometry y="52" width="140" height="26" as="geometry" />
        </mxCell>
        <mxCell id="OiGLj_DlRbiztUVWyKpy-4" value="complete : boolean | null" style="text;strokeColor=none;fillColor=none;align=left;verticalAlign=top;spacingLeft=4;spacingRight=4;overflow=hidden;rotatable=0;points=[[0,0.5],[1,0.5]];portConstraint=eastwest;" parent="OiGLj_DlRbiztUVWyKpy-1" vertex="1">
          <mxGeometry y="78" width="140" height="26" as="geometry" />
        </mxCell>
        <mxCell id="HbBlQq7aOt1CzihiDnGH-30" style="edgeStyle=orthogonalEdgeStyle;rounded=0;orthogonalLoop=1;jettySize=auto;html=1;" parent="1" source="HbBlQq7aOt1CzihiDnGH-1" target="HbBlQq7aOt1CzihiDnGH-29" edge="1">
          <mxGeometry relative="1" as="geometry" />
        </mxCell>
        <mxCell id="3toufLZ86Ex0eC3baNWi-9" style="edgeStyle=orthogonalEdgeStyle;rounded=0;orthogonalLoop=1;jettySize=auto;html=1;" parent="1" source="HbBlQq7aOt1CzihiDnGH-1" target="3toufLZ86Ex0eC3baNWi-7" edge="1">
          <mxGeometry relative="1" as="geometry" />
        </mxCell>
        <mxCell id="HbBlQq7aOt1CzihiDnGH-1" value="vlan" style="swimlane;fontStyle=1;childLayout=stackLayout;horizontal=1;startSize=26;fillColor=#e1d5e7;horizontalStack=0;resizeParent=1;resizeParentMax=0;resizeLast=0;collapsible=1;marginBottom=0;strokeColor=#9673a6;" parent="1" vertex="1">
          <mxGeometry x="870" y="485" width="140" height="130" as="geometry" />
        </mxCell>
        <mxCell id="HbBlQq7aOt1CzihiDnGH-2" value="id : string" style="text;strokeColor=none;fillColor=none;align=left;verticalAlign=top;spacingLeft=4;spacingRight=4;overflow=hidden;rotatable=0;points=[[0,0.5],[1,0.5]];portConstraint=eastwest;" parent="HbBlQq7aOt1CzihiDnGH-1" vertex="1">
          <mxGeometry y="26" width="140" height="26" as="geometry" />
        </mxCell>
        <mxCell id="HbBlQq7aOt1CzihiDnGH-3" value="number : integer" style="text;strokeColor=none;fillColor=none;align=left;verticalAlign=top;spacingLeft=4;spacingRight=4;overflow=hidden;rotatable=0;points=[[0,0.5],[1,0.5]];portConstraint=eastwest;" parent="HbBlQq7aOt1CzihiDnGH-1" vertex="1">
          <mxGeometry y="52" width="140" height="26" as="geometry" />
        </mxCell>
        <mxCell id="HbBlQq7aOt1CzihiDnGH-4" value="purpose : integer" style="text;strokeColor=none;fillColor=none;align=left;verticalAlign=top;spacingLeft=4;spacingRight=4;overflow=hidden;rotatable=0;points=[[0,0.5],[1,0.5]];portConstraint=eastwest;" parent="HbBlQq7aOt1CzihiDnGH-1" vertex="1">
          <mxGeometry y="78" width="140" height="26" as="geometry" />
        </mxCell>
        <mxCell id="HbBlQq7aOt1CzihiDnGH-5" value="desc : string" style="text;strokeColor=none;fillColor=none;align=left;verticalAlign=top;spacingLeft=4;spacingRight=4;overflow=hidden;rotatable=0;points=[[0,0.5],[1,0.5]];portConstraint=eastwest;" parent="HbBlQq7aOt1CzihiDnGH-1" vertex="1">
          <mxGeometry y="104" width="140" height="26" as="geometry" />
        </mxCell>
        <mxCell id="HbBlQq7aOt1CzihiDnGH-21" style="edgeStyle=orthogonalEdgeStyle;rounded=0;orthogonalLoop=1;jettySize=auto;html=1;" parent="1" source="HbBlQq7aOt1CzihiDnGH-6" target="HbBlQq7aOt1CzihiDnGH-20" edge="1">
          <mxGeometry relative="1" as="geometry" />
        </mxCell>
        <mxCell id="HbBlQq7aOt1CzihiDnGH-22" style="edgeStyle=orthogonalEdgeStyle;rounded=0;orthogonalLoop=1;jettySize=auto;html=1;" parent="1" source="HbBlQq7aOt1CzihiDnGH-6" target="HbBlQq7aOt1CzihiDnGH-19" edge="1">
          <mxGeometry relative="1" as="geometry" />
        </mxCell>
        <mxCell id="HbBlQq7aOt1CzihiDnGH-6" value="ippool" style="swimlane;fontStyle=1;childLayout=stackLayout;horizontal=1;startSize=26;fillColor=#e1d5e7;horizontalStack=0;resizeParent=1;resizeParentMax=0;resizeLast=0;collapsible=1;marginBottom=0;strokeColor=#9673a6;" parent="1" vertex="1">
          <mxGeometry x="706" y="745" width="140" height="182" as="geometry" />
        </mxCell>
        <mxCell id="HbBlQq7aOt1CzihiDnGH-7" value="id : string" style="text;strokeColor=none;fillColor=none;align=left;verticalAlign=top;spacingLeft=4;spacingRight=4;overflow=hidden;rotatable=0;points=[[0,0.5],[1,0.5]];portConstraint=eastwest;" parent="HbBlQq7aOt1CzihiDnGH-6" vertex="1">
          <mxGeometry y="26" width="140" height="26" as="geometry" />
        </mxCell>
        <mxCell id="HbBlQq7aOt1CzihiDnGH-10" value="desc : string" style="text;strokeColor=none;fillColor=none;align=left;verticalAlign=top;spacingLeft=4;spacingRight=4;overflow=hidden;rotatable=0;points=[[0,0.5],[1,0.5]];portConstraint=eastwest;" parent="HbBlQq7aOt1CzihiDnGH-6" vertex="1">
          <mxGeometry y="52" width="140" height="26" as="geometry" />
        </mxCell>
        <mxCell id="HbBlQq7aOt1CzihiDnGH-8" value="mask : integer" style="text;strokeColor=none;fillColor=none;align=left;verticalAlign=top;spacingLeft=4;spacingRight=4;overflow=hidden;rotatable=0;points=[[0,0.5],[1,0.5]];portConstraint=eastwest;" parent="HbBlQq7aOt1CzihiDnGH-6" vertex="1">
          <mxGeometry y="78" width="140" height="26" as="geometry" />
        </mxCell>
        <mxCell id="HbBlQq7aOt1CzihiDnGH-9" value="range_start : integer" style="text;strokeColor=none;fillColor=none;align=left;verticalAlign=top;spacingLeft=4;spacingRight=4;overflow=hidden;rotatable=0;points=[[0,0.5],[1,0.5]];portConstraint=eastwest;" parent="HbBlQq7aOt1CzihiDnGH-6" vertex="1">
          <mxGeometry y="104" width="140" height="26" as="geometry" />
        </mxCell>
        <mxCell id="HbBlQq7aOt1CzihiDnGH-11" value="range_end : integer" style="text;strokeColor=none;fillColor=none;align=left;verticalAlign=top;spacingLeft=4;spacingRight=4;overflow=hidden;rotatable=0;points=[[0,0.5],[1,0.5]];portConstraint=eastwest;" parent="HbBlQq7aOt1CzihiDnGH-6" vertex="1">
          <mxGeometry y="130" width="140" height="26" as="geometry" />
        </mxCell>
        <mxCell id="HbBlQq7aOt1CzihiDnGH-12" value="vlan_id : string" style="text;strokeColor=none;fillColor=none;align=left;verticalAlign=top;spacingLeft=4;spacingRight=4;overflow=hidden;rotatable=0;points=[[0,0.5],[1,0.5]];portConstraint=eastwest;" parent="HbBlQq7aOt1CzihiDnGH-6" vertex="1">
          <mxGeometry y="156" width="140" height="26" as="geometry" />
        </mxCell>
        <mxCell id="HbBlQq7aOt1CzihiDnGH-13" style="edgeStyle=orthogonalEdgeStyle;rounded=0;orthogonalLoop=1;jettySize=auto;html=1;" parent="1" source="HbBlQq7aOt1CzihiDnGH-1" target="HbBlQq7aOt1CzihiDnGH-12" edge="1">
          <mxGeometry relative="1" as="geometry" />
        </mxCell>
        <mxCell id="HbBlQq7aOt1CzihiDnGH-14" value="table" style="swimlane;fontStyle=1;childLayout=stackLayout;horizontal=1;startSize=26;fillColor=#e1d5e7;horizontalStack=0;resizeParent=1;resizeParentMax=0;resizeLast=0;collapsible=1;marginBottom=0;strokeColor=#9673a6;" parent="1" vertex="1">
          <mxGeometry x="586" y="485" width="140" height="182" as="geometry" />
        </mxCell>
        <mxCell id="HbBlQq7aOt1CzihiDnGH-15" value="id : string" style="text;strokeColor=none;fillColor=none;align=left;verticalAlign=top;spacingLeft=4;spacingRight=4;overflow=hidden;rotatable=0;points=[[0,0.5],[1,0.5]];portConstraint=eastwest;" parent="HbBlQq7aOt1CzihiDnGH-14" vertex="1">
          <mxGeometry y="26" width="140" height="26" as="geometry" />
        </mxCell>
        <mxCell id="HbBlQq7aOt1CzihiDnGH-17" value="number : integer" style="text;strokeColor=none;fillColor=none;align=left;verticalAlign=top;spacingLeft=4;spacingRight=4;overflow=hidden;rotatable=0;points=[[0,0.5],[1,0.5]];portConstraint=eastwest;" parent="HbBlQq7aOt1CzihiDnGH-14" vertex="1">
          <mxGeometry y="52" width="140" height="26" as="geometry" />
        </mxCell>
        <mxCell id="HbBlQq7aOt1CzihiDnGH-16" value="desc : string" style="text;strokeColor=none;fillColor=none;align=left;verticalAlign=top;spacingLeft=4;spacingRight=4;overflow=hidden;rotatable=0;points=[[0,0.5],[1,0.5]];portConstraint=eastwest;" parent="HbBlQq7aOt1CzihiDnGH-14" vertex="1">
          <mxGeometry y="78" width="140" height="26" as="geometry" />
        </mxCell>
        <mxCell id="HbBlQq7aOt1CzihiDnGH-18" value="switch_id : string" style="text;strokeColor=none;fillColor=none;align=left;verticalAlign=top;spacingLeft=4;spacingRight=4;overflow=hidden;rotatable=0;points=[[0,0.5],[1,0.5]];portConstraint=eastwest;" parent="HbBlQq7aOt1CzihiDnGH-14" vertex="1">
          <mxGeometry y="104" width="140" height="26" as="geometry" />
        </mxCell>
        <mxCell id="HbBlQq7aOt1CzihiDnGH-19" value="seat_ip_pool_id : string" style="text;strokeColor=none;fillColor=none;align=left;verticalAlign=top;spacingLeft=4;spacingRight=4;overflow=hidden;rotatable=0;points=[[0,0.5],[1,0.5]];portConstraint=eastwest;" parent="HbBlQq7aOt1CzihiDnGH-14" vertex="1">
          <mxGeometry y="130" width="140" height="26" as="geometry" />
        </mxCell>
        <mxCell id="HbBlQq7aOt1CzihiDnGH-20" value="add_ip_pool_id : string" style="text;strokeColor=none;fillColor=none;align=left;verticalAlign=top;spacingLeft=4;spacingRight=4;overflow=hidden;rotatable=0;points=[[0,0.5],[1,0.5]];portConstraint=eastwest;" parent="HbBlQq7aOt1CzihiDnGH-14" vertex="1">
          <mxGeometry y="156" width="140" height="26" as="geometry" />
        </mxCell>
        <mxCell id="HbBlQq7aOt1CzihiDnGH-23" value="switch" style="swimlane;fontStyle=1;childLayout=stackLayout;horizontal=1;startSize=26;fillColor=#e1d5e7;horizontalStack=0;resizeParent=1;resizeParentMax=0;resizeLast=0;collapsible=1;marginBottom=0;strokeColor=#9673a6;" parent="1" vertex="1">
          <mxGeometry x="450" y="160" width="190" height="312" as="geometry" />
        </mxCell>
        <mxCell id="HbBlQq7aOt1CzihiDnGH-24" value="id : string" style="text;strokeColor=none;fillColor=none;align=left;verticalAlign=top;spacingLeft=4;spacingRight=4;overflow=hidden;rotatable=0;points=[[0,0.5],[1,0.5]];portConstraint=eastwest;" parent="HbBlQq7aOt1CzihiDnGH-23" vertex="1">
          <mxGeometry y="26" width="190" height="26" as="geometry" />
        </mxCell>
        <mxCell id="3H03HiEPypZQiUmEZtjQ-2" value="desc : string" style="text;strokeColor=none;fillColor=none;align=left;verticalAlign=top;spacingLeft=4;spacingRight=4;overflow=hidden;rotatable=0;points=[[0,0.5],[1,0.5]];portConstraint=eastwest;" parent="HbBlQq7aOt1CzihiDnGH-23" vertex="1">
          <mxGeometry y="52" width="190" height="26" as="geometry" />
        </mxCell>
        <mxCell id="HbBlQq7aOt1CzihiDnGH-25" value="addr : string" style="text;strokeColor=none;fillColor=none;align=left;verticalAlign=top;spacingLeft=4;spacingRight=4;overflow=hidden;rotatable=0;points=[[0,0.5],[1,0.5]];portConstraint=eastwest;" parent="HbBlQq7aOt1CzihiDnGH-23" vertex="1">
          <mxGeometry y="78" width="190" height="26" as="geometry" />
        </mxCell>
        <mxCell id="HbBlQq7aOt1CzihiDnGH-26" value="user : string" style="text;strokeColor=none;fillColor=none;align=left;verticalAlign=top;spacingLeft=4;spacingRight=4;overflow=hidden;rotatable=0;points=[[0,0.5],[1,0.5]];portConstraint=eastwest;" parent="HbBlQq7aOt1CzihiDnGH-23" vertex="1">
          <mxGeometry y="104" width="190" height="26" as="geometry" />
        </mxCell>
        <mxCell id="HbBlQq7aOt1CzihiDnGH-27" value="pw : string" style="text;strokeColor=none;fillColor=none;align=left;verticalAlign=top;spacingLeft=4;spacingRight=4;overflow=hidden;rotatable=0;points=[[0,0.5],[1,0.5]];portConstraint=eastwest;" parent="HbBlQq7aOt1CzihiDnGH-23" vertex="1">
          <mxGeometry y="130" width="190" height="26" as="geometry" />
        </mxCell>
        <mxCell id="HbBlQq7aOt1CzihiDnGH-28" value="purpose : intger" style="text;strokeColor=none;fillColor=none;align=left;verticalAlign=top;spacingLeft=4;spacingRight=4;overflow=hidden;rotatable=0;points=[[0,0.5],[1,0.5]];portConstraint=eastwest;" parent="HbBlQq7aOt1CzihiDnGH-23" vertex="1">
          <mxGeometry y="156" width="190" height="26" as="geometry" />
        </mxCell>
        <mxCell id="2" value="commited : boolean" style="text;strokeColor=#6c8ebf;fillColor=#dae8fc;align=left;verticalAlign=top;spacingLeft=4;spacingRight=4;overflow=hidden;rotatable=0;points=[[0,0.5],[1,0.5]];portConstraint=eastwest;" parent="HbBlQq7aOt1CzihiDnGH-23" vertex="1">
          <mxGeometry y="182" width="190" height="26" as="geometry" />
        </mxCell>
        <mxCell id="HbBlQq7aOt1CzihiDnGH-29" value="onboarding_vlan_id : string | null" style="text;strokeColor=none;fillColor=none;align=left;verticalAlign=top;spacingLeft=4;spacingRight=4;overflow=hidden;rotatable=0;points=[[0,0.5],[1,0.5]];portConstraint=eastwest;" parent="HbBlQq7aOt1CzihiDnGH-23" vertex="1">
          <mxGeometry y="208" width="190" height="26" as="geometry" />
        </mxCell>
        <mxCell id="I7PI70zGRJGLV9i5_dda-1" value="connected (ro) : boolean" style="text;strokeColor=none;fillColor=none;align=left;verticalAlign=top;spacingLeft=4;spacingRight=4;overflow=hidden;rotatable=0;points=[[0,0.5],[1,0.5]];portConstraint=eastwest;" parent="HbBlQq7aOt1CzihiDnGH-23" vertex="1">
          <mxGeometry y="234" width="190" height="26" as="geometry" />
        </mxCell>
        <mxCell id="I7PI70zGRJGLV9i5_dda-2" value="mac (ro) : string" style="text;strokeColor=none;fillColor=none;align=left;verticalAlign=top;spacingLeft=4;spacingRight=4;overflow=hidden;rotatable=0;points=[[0,0.5],[1,0.5]];portConstraint=eastwest;" parent="HbBlQq7aOt1CzihiDnGH-23" vertex="1">
          <mxGeometry y="260" width="190" height="26" as="geometry" />
        </mxCell>
        <mxCell id="PKYJcR1PnzgGDaaUyaEz-2" value="known_vlans (ro) : list&lt;string&gt;" style="text;strokeColor=none;fillColor=none;align=left;verticalAlign=top;spacingLeft=4;spacingRight=4;overflow=hidden;rotatable=0;points=[[0,0.5],[1,0.5]];portConstraint=eastwest;" parent="HbBlQq7aOt1CzihiDnGH-23" vertex="1">
          <mxGeometry y="286" width="190" height="26" as="geometry" />
        </mxCell>
        <mxCell id="HbBlQq7aOt1CzihiDnGH-31" style="edgeStyle=orthogonalEdgeStyle;rounded=0;orthogonalLoop=1;jettySize=auto;html=1;" parent="1" source="HbBlQq7aOt1CzihiDnGH-23" target="HbBlQq7aOt1CzihiDnGH-18" edge="1">
          <mxGeometry relative="1" as="geometry" />
        </mxCell>
        <mxCell id="HbBlQq7aOt1CzihiDnGH-45" style="edgeStyle=orthogonalEdgeStyle;rounded=0;orthogonalLoop=1;jettySize=auto;html=1;" parent="1" source="HbBlQq7aOt1CzihiDnGH-32" target="HbBlQq7aOt1CzihiDnGH-44" edge="1">
          <mxGeometry relative="1" as="geometry" />
        </mxCell>
        <mxCell id="HbBlQq7aOt1CzihiDnGH-32" value="seat" style="swimlane;fontStyle=1;childLayout=stackLayout;horizontal=1;startSize=26;fillColor=#e1d5e7;horizontalStack=0;resizeParent=1;resizeParentMax=0;resizeLast=0;collapsible=1;marginBottom=0;strokeColor=#9673a6;" parent="1" vertex="1">
          <mxGeometry x="376" y="589" width="140" height="130" as="geometry" />
        </mxCell>
        <mxCell id="HbBlQq7aOt1CzihiDnGH-33" value="id : string" style="text;strokeColor=none;fillColor=none;align=left;verticalAlign=top;spacingLeft=4;spacingRight=4;overflow=hidden;rotatable=0;points=[[0,0.5],[1,0.5]];portConstraint=eastwest;" parent="HbBlQq7aOt1CzihiDnGH-32" vertex="1">
          <mxGeometry y="26" width="140" height="26" as="geometry" />
        </mxCell>
        <mxCell id="HbBlQq7aOt1CzihiDnGH-34" value="number : integer" style="text;strokeColor=none;fillColor=none;align=left;verticalAlign=top;spacingLeft=4;spacingRight=4;overflow=hidden;rotatable=0;points=[[0,0.5],[1,0.5]];portConstraint=eastwest;" parent="HbBlQq7aOt1CzihiDnGH-32" vertex="1">
          <mxGeometry y="52" width="140" height="26" as="geometry" />
        </mxCell>
        <mxCell id="HbBlQq7aOt1CzihiDnGH-35" value="pw : string | null" style="text;strokeColor=none;fillColor=none;align=left;verticalAlign=top;spacingLeft=4;spacingRight=4;overflow=hidden;rotatable=0;points=[[0,0.5],[1,0.5]];portConstraint=eastwest;" parent="HbBlQq7aOt1CzihiDnGH-32" vertex="1">
          <mxGeometry y="78" width="140" height="26" as="geometry" />
        </mxCell>
        <mxCell id="HbBlQq7aOt1CzihiDnGH-36" value="table_id : string" style="text;strokeColor=none;fillColor=none;align=left;verticalAlign=top;spacingLeft=4;spacingRight=4;overflow=hidden;rotatable=0;points=[[0,0.5],[1,0.5]];portConstraint=eastwest;" parent="HbBlQq7aOt1CzihiDnGH-32" vertex="1">
          <mxGeometry y="104" width="140" height="26" as="geometry" />
        </mxCell>
        <mxCell id="HbBlQq7aOt1CzihiDnGH-37" style="edgeStyle=orthogonalEdgeStyle;rounded=0;orthogonalLoop=1;jettySize=auto;html=1;" parent="1" source="HbBlQq7aOt1CzihiDnGH-14" target="HbBlQq7aOt1CzihiDnGH-36" edge="1">
          <mxGeometry relative="1" as="geometry" />
        </mxCell>
        <mxCell id="HbBlQq7aOt1CzihiDnGH-38" value="participant" style="swimlane;fontStyle=1;childLayout=stackLayout;horizontal=1;startSize=26;fillColor=#e1d5e7;horizontalStack=0;resizeParent=1;resizeParentMax=0;resizeLast=0;collapsible=1;marginBottom=0;strokeColor=#9673a6;" parent="1" vertex="1">
          <mxGeometry x="30" y="382" width="190" height="182" as="geometry" />
        </mxCell>
        <mxCell id="HbBlQq7aOt1CzihiDnGH-39" value="id : string" style="text;strokeColor=none;fillColor=none;align=left;verticalAlign=top;spacingLeft=4;spacingRight=4;overflow=hidden;rotatable=0;points=[[0,0.5],[1,0.5]];portConstraint=eastwest;" parent="HbBlQq7aOt1CzihiDnGH-38" vertex="1">
          <mxGeometry y="26" width="190" height="26" as="geometry" />
        </mxCell>
        <mxCell id="HbBlQq7aOt1CzihiDnGH-40" value="admin : boolean" style="text;strokeColor=none;fillColor=none;align=left;verticalAlign=top;spacingLeft=4;spacingRight=4;overflow=hidden;rotatable=0;points=[[0,0.5],[1,0.5]];portConstraint=eastwest;" parent="HbBlQq7aOt1CzihiDnGH-38" vertex="1">
          <mxGeometry y="52" width="190" height="26" as="geometry" />
        </mxCell>
        <mxCell id="HbBlQq7aOt1CzihiDnGH-41" value="name : string" style="text;strokeColor=none;fillColor=none;align=left;verticalAlign=top;spacingLeft=4;spacingRight=4;overflow=hidden;rotatable=0;points=[[0,0.5],[1,0.5]];portConstraint=eastwest;" parent="HbBlQq7aOt1CzihiDnGH-38" vertex="1">
          <mxGeometry y="78" width="190" height="26" as="geometry" />
        </mxCell>
        <mxCell id="HbBlQq7aOt1CzihiDnGH-42" value="login : string | null" style="text;strokeColor=none;fillColor=none;align=left;verticalAlign=top;spacingLeft=4;spacingRight=4;overflow=hidden;rotatable=0;points=[[0,0.5],[1,0.5]];portConstraint=eastwest;" parent="HbBlQq7aOt1CzihiDnGH-38" vertex="1">
          <mxGeometry y="104" width="190" height="26" as="geometry" />
        </mxCell>
        <mxCell id="HbBlQq7aOt1CzihiDnGH-43" value="pw : string | null" style="text;strokeColor=none;fillColor=none;align=left;verticalAlign=top;spacingLeft=4;spacingRight=4;overflow=hidden;rotatable=0;points=[[0,0.5],[1,0.5]];portConstraint=eastwest;" parent="HbBlQq7aOt1CzihiDnGH-38" vertex="1">
          <mxGeometry y="130" width="190" height="26" as="geometry" />
        </mxCell>
        <mxCell id="HbBlQq7aOt1CzihiDnGH-44" value="seat_id : sting | null" style="text;strokeColor=none;fillColor=none;align=left;verticalAlign=top;spacingLeft=4;spacingRight=4;overflow=hidden;rotatable=0;points=[[0,0.5],[1,0.5]];portConstraint=eastwest;" parent="HbBlQq7aOt1CzihiDnGH-38" vertex="1">
          <mxGeometry y="156" width="190" height="26" as="geometry" />
        </mxCell>
        <mxCell id="HbBlQq7aOt1CzihiDnGH-46" value="device" style="swimlane;fontStyle=1;childLayout=stackLayout;horizontal=1;startSize=26;fillColor=#e1d5e7;horizontalStack=0;resizeParent=1;resizeParentMax=0;resizeLast=0;collapsible=1;marginBottom=0;strokeColor=#9673a6;" parent="1" vertex="1">
          <mxGeometry x="156" y="719" width="190" height="312" as="geometry" />
        </mxCell>
        <mxCell id="HbBlQq7aOt1CzihiDnGH-47" value="id : string" style="text;strokeColor=none;fillColor=none;align=left;verticalAlign=top;spacingLeft=4;spacingRight=4;overflow=hidden;rotatable=0;points=[[0,0.5],[1,0.5]];portConstraint=eastwest;" parent="HbBlQq7aOt1CzihiDnGH-46" vertex="1">
          <mxGeometry y="26" width="190" height="26" as="geometry" />
        </mxCell>
        <mxCell id="HbBlQq7aOt1CzihiDnGH-48" value="mac : string" style="text;strokeColor=none;fillColor=none;align=left;verticalAlign=top;spacingLeft=4;spacingRight=4;overflow=hidden;rotatable=0;points=[[0,0.5],[1,0.5]];portConstraint=eastwest;" parent="HbBlQq7aOt1CzihiDnGH-46" vertex="1">
          <mxGeometry y="52" width="190" height="26" as="geometry" />
        </mxCell>
        <mxCell id="HbBlQq7aOt1CzihiDnGH-49" value="desc : string" style="text;strokeColor=none;fillColor=none;align=left;verticalAlign=top;spacingLeft=4;spacingRight=4;overflow=hidden;rotatable=0;points=[[0,0.5],[1,0.5]];portConstraint=eastwest;" parent="HbBlQq7aOt1CzihiDnGH-46" vertex="1">
          <mxGeometry y="78" width="190" height="26" as="geometry" />
        </mxCell>
        <mxCell id="HbBlQq7aOt1CzihiDnGH-50" value="seat_id : string | null" style="text;strokeColor=none;fillColor=none;align=left;verticalAlign=top;spacingLeft=4;spacingRight=4;overflow=hidden;rotatable=0;points=[[0,0.5],[1,0.5]];portConstraint=eastwest;" parent="HbBlQq7aOt1CzihiDnGH-46" vertex="1">
          <mxGeometry y="104" width="190" height="26" as="geometry" />
        </mxCell>
        <mxCell id="HbBlQq7aOt1CzihiDnGH-51" value="participant_id : string | null" style="text;strokeColor=none;fillColor=none;align=left;verticalAlign=top;spacingLeft=4;spacingRight=4;overflow=hidden;rotatable=0;points=[[0,0.5],[1,0.5]];portConstraint=eastwest;" parent="HbBlQq7aOt1CzihiDnGH-46" vertex="1">
          <mxGeometry y="130" width="190" height="26" as="geometry" />
        </mxCell>
        <mxCell id="HbBlQq7aOt1CzihiDnGH-52" value="ip_pool_id : string | null" style="text;strokeColor=none;fillColor=none;align=left;verticalAlign=top;spacingLeft=4;spacingRight=4;overflow=hidden;rotatable=0;points=[[0,0.5],[1,0.5]];portConstraint=eastwest;" parent="HbBlQq7aOt1CzihiDnGH-46" vertex="1">
          <mxGeometry y="156" width="190" height="26" as="geometry" />
        </mxCell>
        <mxCell id="HbBlQq7aOt1CzihiDnGH-53" value="ip : integer | null" style="text;strokeColor=none;fillColor=none;align=left;verticalAlign=top;spacingLeft=4;spacingRight=4;overflow=hidden;rotatable=0;points=[[0,0.5],[1,0.5]];portConstraint=eastwest;" parent="HbBlQq7aOt1CzihiDnGH-46" vertex="1">
          <mxGeometry y="182" width="190" height="26" as="geometry" />
        </mxCell>
        <mxCell id="3toufLZ86Ex0eC3baNWi-10" value="port_id : string | null" style="text;strokeColor=none;fillColor=none;align=left;verticalAlign=top;spacingLeft=4;spacingRight=4;overflow=hidden;rotatable=0;points=[[0,0.5],[1,0.5]];portConstraint=eastwest;" parent="HbBlQq7aOt1CzihiDnGH-46" vertex="1">
          <mxGeometry y="208" width="190" height="26" as="geometry" />
        </mxCell>
        <mxCell id="XMUyjEpm8hR2gaXRw8n--4" value="onboarding_blocked : boolean" style="text;strokeColor=none;fillColor=none;align=left;verticalAlign=top;spacingLeft=4;spacingRight=4;overflow=hidden;rotatable=0;points=[[0,0.5],[1,0.5]];portConstraint=eastwest;" parent="HbBlQq7aOt1CzihiDnGH-46" vertex="1">
          <mxGeometry y="234" width="190" height="26" as="geometry" />
        </mxCell>
        <mxCell id="XMUyjEpm8hR2gaXRw8n--5" value="pw_strikes : integer" style="text;strokeColor=none;fillColor=none;align=left;verticalAlign=top;spacingLeft=4;spacingRight=4;overflow=hidden;rotatable=0;points=[[0,0.5],[1,0.5]];portConstraint=eastwest;" parent="HbBlQq7aOt1CzihiDnGH-46" vertex="1">
          <mxGeometry y="260" width="190" height="26" as="geometry" />
        </mxCell>
        <mxCell id="XMUyjEpm8hR2gaXRw8n--6" value="last_scan_ts : integer" style="text;strokeColor=none;fillColor=none;align=left;verticalAlign=top;spacingLeft=4;spacingRight=4;overflow=hidden;rotatable=0;points=[[0,0.5],[1,0.5]];portConstraint=eastwest;" parent="HbBlQq7aOt1CzihiDnGH-46" vertex="1">
          <mxGeometry y="286" width="190" height="26" as="geometry" />
        </mxCell>
        <mxCell id="HbBlQq7aOt1CzihiDnGH-54" style="edgeStyle=orthogonalEdgeStyle;rounded=0;orthogonalLoop=1;jettySize=auto;html=1;" parent="1" source="HbBlQq7aOt1CzihiDnGH-38" target="HbBlQq7aOt1CzihiDnGH-51" edge="1">
          <mxGeometry relative="1" as="geometry" />
        </mxCell>
        <mxCell id="HbBlQq7aOt1CzihiDnGH-55" style="edgeStyle=orthogonalEdgeStyle;rounded=0;orthogonalLoop=1;jettySize=auto;html=1;" parent="1" source="HbBlQq7aOt1CzihiDnGH-32" target="HbBlQq7aOt1CzihiDnGH-50" edge="1">
          <mxGeometry relative="1" as="geometry" />
        </mxCell>
        <mxCell id="HbBlQq7aOt1CzihiDnGH-56" style="edgeStyle=orthogonalEdgeStyle;rounded=0;orthogonalLoop=1;jettySize=auto;html=1;" parent="1" source="HbBlQq7aOt1CzihiDnGH-6" target="HbBlQq7aOt1CzihiDnGH-52" edge="1">
          <mxGeometry relative="1" as="geometry" />
        </mxCell>
        <mxCell id="3toufLZ86Ex0eC3baNWi-1" value="port" style="swimlane;fontStyle=1;childLayout=stackLayout;horizontal=1;startSize=26;fillColor=#e1d5e7;horizontalStack=0;resizeParent=1;resizeParentMax=0;resizeLast=0;collapsible=1;marginBottom=0;strokeColor=#9673a6;" parent="1" vertex="1">
          <mxGeometry x="706" y="18" width="184" height="338" as="geometry" />
        </mxCell>
        <mxCell id="3toufLZ86Ex0eC3baNWi-2" value="id : string" style="text;strokeColor=none;fillColor=none;align=left;verticalAlign=top;spacingLeft=4;spacingRight=4;overflow=hidden;rotatable=0;points=[[0,0.5],[1,0.5]];portConstraint=eastwest;" parent="3toufLZ86Ex0eC3baNWi-1" vertex="1">
          <mxGeometry y="26" width="184" height="26" as="geometry" />
        </mxCell>
        <mxCell id="3toufLZ86Ex0eC3baNWi-3" value="number : integer" style="text;strokeColor=none;fillColor=none;align=left;verticalAlign=top;spacingLeft=4;spacingRight=4;overflow=hidden;rotatable=0;points=[[0,0.5],[1,0.5]];portConstraint=eastwest;" parent="3toufLZ86Ex0eC3baNWi-1" vertex="1">
          <mxGeometry y="52" width="184" height="26" as="geometry" />
        </mxCell>
        <mxCell id="3toufLZ86Ex0eC3baNWi-5" value="desc : string" style="text;strokeColor=none;fillColor=none;align=left;verticalAlign=top;spacingLeft=4;spacingRight=4;overflow=hidden;rotatable=0;points=[[0,0.5],[1,0.5]];portConstraint=eastwest;" parent="3toufLZ86Ex0eC3baNWi-1" vertex="1">
          <mxGeometry y="78" width="184" height="26" as="geometry" />
        </mxCell>
        <mxCell id="3toufLZ86Ex0eC3baNWi-4" value="switch_id : string" style="text;strokeColor=none;fillColor=none;align=left;verticalAlign=top;spacingLeft=4;spacingRight=4;overflow=hidden;rotatable=0;points=[[0,0.5],[1,0.5]];portConstraint=eastwest;" parent="3toufLZ86Ex0eC3baNWi-1" vertex="1">
          <mxGeometry y="104" width="184" height="26" as="geometry" />
        </mxCell>
        <mxCell id="3toufLZ86Ex0eC3baNWi-6" value="participants : boolean" style="text;strokeColor=none;fillColor=none;align=left;verticalAlign=top;spacingLeft=4;spacingRight=4;overflow=hidden;rotatable=0;points=[[0,0.5],[1,0.5]];portConstraint=eastwest;" parent="3toufLZ86Ex0eC3baNWi-1" vertex="1">
          <mxGeometry y="130" width="184" height="26" as="geometry" />
        </mxCell>
        <mxCell id="XyD-ON7FCZBojSZJl-00-5" value="switchlink : boolean" style="text;strokeColor=#6c8ebf;fillColor=#dae8fc;align=left;verticalAlign=top;spacingLeft=4;spacingRight=4;overflow=hidden;rotatable=0;points=[[0,0.5],[1,0.5]];portConstraint=eastwest;" parent="3toufLZ86Ex0eC3baNWi-1" vertex="1">
          <mxGeometry y="156" width="184" height="26" as="geometry" />
        </mxCell>
        <mxCell id="D60CrLlRzeW02S85DgUZ-2" value="switchlink_port_id : string | null" style="text;strokeColor=none;fillColor=none;align=left;verticalAlign=top;spacingLeft=4;spacingRight=4;overflow=hidden;rotatable=0;points=[[0,0.5],[1,0.5]];portConstraint=eastwest;" parent="3toufLZ86Ex0eC3baNWi-1" vertex="1">
          <mxGeometry y="182" width="184" height="26" as="geometry" />
        </mxCell>
        <mxCell id="3toufLZ86Ex0eC3baNWi-7" value="vlan_ids (ro) : list&lt;string&gt;" style="text;strokeColor=none;fillColor=none;align=left;verticalAlign=top;spacingLeft=4;spacingRight=4;overflow=hidden;rotatable=0;points=[[0,0.5],[1,0.5]];portConstraint=eastwest;" parent="3toufLZ86Ex0eC3baNWi-1" vertex="1">
          <mxGeometry y="208" width="184" height="26" as="geometry" />
        </mxCell>
        <mxCell id="3toufLZ86Ex0eC3baNWi-11" value="type (ro) : string" style="text;strokeColor=none;fillColor=none;align=left;verticalAlign=top;spacingLeft=4;spacingRight=4;overflow=hidden;rotatable=0;points=[[0,0.5],[1,0.5]];portConstraint=eastwest;" parent="3toufLZ86Ex0eC3baNWi-1" vertex="1">
          <mxGeometry y="234" width="184" height="26" as="geometry" />
        </mxCell>
        <mxCell id="3toufLZ86Ex0eC3baNWi-12" value="enabled (ro) : boolean" style="text;strokeColor=none;fillColor=none;align=left;verticalAlign=top;spacingLeft=4;spacingRight=4;overflow=hidden;rotatable=0;points=[[0,0.5],[1,0.5]];portConstraint=eastwest;" parent="3toufLZ86Ex0eC3baNWi-1" vertex="1">
          <mxGeometry y="260" width="184" height="26" as="geometry" />
        </mxCell>
        <mxCell id="3toufLZ86Ex0eC3baNWi-13" value="link (ro) : boolean" style="text;strokeColor=none;fillColor=none;align=left;verticalAlign=top;spacingLeft=4;spacingRight=4;overflow=hidden;rotatable=0;points=[[0,0.5],[1,0.5]];portConstraint=eastwest;" parent="3toufLZ86Ex0eC3baNWi-1" vertex="1">
          <mxGeometry y="286" width="184" height="26" as="geometry" />
        </mxCell>
        <mxCell id="3toufLZ86Ex0eC3baNWi-14" value="speed (ro) : string" style="text;strokeColor=none;fillColor=none;align=left;verticalAlign=top;spacingLeft=4;spacingRight=4;overflow=hidden;rotatable=0;points=[[0,0.5],[1,0.5]];portConstraint=eastwest;" parent="3toufLZ86Ex0eC3baNWi-1" vertex="1">
          <mxGeometry y="312" width="184" height="26" as="geometry" />
        </mxCell>
        <mxCell id="3toufLZ86Ex0eC3baNWi-8" style="edgeStyle=orthogonalEdgeStyle;rounded=0;orthogonalLoop=1;jettySize=auto;html=1;" parent="1" source="HbBlQq7aOt1CzihiDnGH-23" target="3toufLZ86Ex0eC3baNWi-4" edge="1">
          <mxGeometry relative="1" as="geometry" />
        </mxCell>
        <mxCell id="MXI354nj7rL_2gChRyMd-1" value="system" style="swimlane;fontStyle=1;childLayout=stackLayout;horizontal=1;startSize=26;fillColor=none;horizontalStack=0;resizeParent=1;resizeParentMax=0;resizeLast=0;collapsible=1;marginBottom=0;" parent="1" vertex="1">
          <mxGeometry x="1050" y="278" width="190" height="156" as="geometry" />
        </mxCell>
        <mxCell id="MXI354nj7rL_2gChRyMd-2" value="commited : boolean" style="text;strokeColor=#6c8ebf;fillColor=#dae8fc;align=left;verticalAlign=top;spacingLeft=4;spacingRight=4;overflow=hidden;rotatable=0;points=[[0,0.5],[1,0.5]];portConstraint=eastwest;" parent="MXI354nj7rL_2gChRyMd-1" vertex="1">
          <mxGeometry y="26" width="190" height="26" as="geometry" />
        </mxCell>
        <mxCell id="MXI354nj7rL_2gChRyMd-3" value="open_commits : boolen" style="text;strokeColor=#6c8ebf;fillColor=#dae8fc;align=left;verticalAlign=top;spacingLeft=4;spacingRight=4;overflow=hidden;rotatable=0;points=[[0,0.5],[1,0.5]];portConstraint=eastwest;" parent="MXI354nj7rL_2gChRyMd-1" vertex="1">
          <mxGeometry y="52" width="190" height="26" as="geometry" />
        </mxCell>
        <mxCell id="LbffNxMu1DLhnjCqcATJ-6" value="seatnumbers_absolute : boolean" style="text;strokeColor=#d6b656;fillColor=#fff2cc;align=left;verticalAlign=top;spacingLeft=4;spacingRight=4;overflow=hidden;rotatable=0;points=[[0,0.5],[1,0.5]];portConstraint=eastwest;" parent="MXI354nj7rL_2gChRyMd-1" vertex="1">
          <mxGeometry y="78" width="190" height="26" as="geometry" />
        </mxCell>
        <mxCell id="4" value="nlpt_sso : boolean" style="text;strokeColor=#d6b656;fillColor=#fff2cc;align=left;verticalAlign=top;spacingLeft=4;spacingRight=4;overflow=hidden;rotatable=0;points=[[0,0.5],[1,0.5]];portConstraint=eastwest;" parent="MXI354nj7rL_2gChRyMd-1" vertex="1">
          <mxGeometry y="104" width="190" height="26" as="geometry" />
        </mxCell>
        <mxCell id="3" value="version : string" style="text;strokeColor=#d79b00;fillColor=#ffe6cc;align=left;verticalAlign=top;spacingLeft=4;spacingRight=4;overflow=hidden;rotatable=0;points=[[0,0.5],[1,0.5]];portConstraint=eastwest;" parent="MXI354nj7rL_2gChRyMd-1" vertex="1">
          <mxGeometry y="130" width="190" height="26" as="geometry" />
        </mxCell>
        <mxCell id="LbffNxMu1DLhnjCqcATJ-2" value="onboarding" style="swimlane;fontStyle=1;childLayout=stackLayout;horizontal=1;startSize=26;fillColor=none;horizontalStack=0;resizeParent=1;resizeParentMax=0;resizeLast=0;collapsible=1;marginBottom=0;" parent="1" vertex="1">
          <mxGeometry x="260" y="240" width="150" height="130" as="geometry" />
        </mxCell>
        <mxCell id="LbffNxMu1DLhnjCqcATJ-3" value="ip : number | null" style="text;strokeColor=none;fillColor=none;align=left;verticalAlign=top;spacingLeft=4;spacingRight=4;overflow=hidden;rotatable=0;points=[[0,0.5],[1,0.5]];portConstraint=eastwest;" parent="LbffNxMu1DLhnjCqcATJ-2" vertex="1">
          <mxGeometry y="26" width="150" height="26" as="geometry" />
        </mxCell>
        <mxCell id="LbffNxMu1DLhnjCqcATJ-4" value="tables : list&lt;number&gt; | null" style="text;strokeColor=none;fillColor=none;align=left;verticalAlign=top;spacingLeft=4;spacingRight=4;overflow=hidden;rotatable=0;points=[[0,0.5],[1,0.5]];portConstraint=eastwest;" parent="LbffNxMu1DLhnjCqcATJ-2" vertex="1">
          <mxGeometry y="52" width="150" height="26" as="geometry" />
        </mxCell>
        <mxCell id="LbffNxMu1DLhnjCqcATJ-5" value="participant : string | null" style="text;strokeColor=none;fillColor=none;align=left;verticalAlign=top;spacingLeft=4;spacingRight=4;overflow=hidden;rotatable=0;points=[[0,0.5],[1,0.5]];portConstraint=eastwest;" parent="LbffNxMu1DLhnjCqcATJ-2" vertex="1">
          <mxGeometry y="78" width="150" height="26" as="geometry" />
        </mxCell>
        <mxCell id="LbffNxMu1DLhnjCqcATJ-9" value="done : boolean | null" style="text;strokeColor=none;fillColor=none;align=left;verticalAlign=top;spacingLeft=4;spacingRight=4;overflow=hidden;rotatable=0;points=[[0,0.5],[1,0.5]];portConstraint=eastwest;" parent="LbffNxMu1DLhnjCqcATJ-2" vertex="1">
          <mxGeometry y="104" width="150" height="26" as="geometry" />
        </mxCell>
        <mxCell id="LbffNxMu1DLhnjCqcATJ-8" value="" style="group" parent="1" vertex="1" connectable="0">
          <mxGeometry x="30" y="20" width="170" height="290" as="geometry" />
        </mxCell>
        <mxCell id="HbBlQq7aOt1CzihiDnGH-57" value="legend" style="shape=umlFrame;whiteSpace=wrap;html=1;" parent="LbffNxMu1DLhnjCqcATJ-8" vertex="1">
          <mxGeometry width="170" height="290" as="geometry" />
        </mxCell>
        <mxCell id="OiGLj_DlRbiztUVWyKpy-6" value="user rw&lt;br&gt;admin rw" style="rounded=0;whiteSpace=wrap;html=1;fillColor=#d5e8d4;strokeColor=#82b366;labelPosition=right;verticalLabelPosition=middle;align=left;verticalAlign=middle;spacing=7;" parent="LbffNxMu1DLhnjCqcATJ-8" vertex="1">
          <mxGeometry x="20" y="90" width="70" height="30" as="geometry" />
        </mxCell>
        <mxCell id="OiGLj_DlRbiztUVWyKpy-7" value="user ro&lt;br&gt;admin rw" style="rounded=0;whiteSpace=wrap;html=1;fillColor=#fff2cc;strokeColor=#d6b656;labelPosition=right;verticalLabelPosition=middle;align=left;verticalAlign=middle;spacing=7;" parent="LbffNxMu1DLhnjCqcATJ-8" vertex="1">
          <mxGeometry x="20" y="130" width="70" height="30" as="geometry" />
        </mxCell>
        <mxCell id="OiGLj_DlRbiztUVWyKpy-8" value="user --&lt;br&gt;admin ro" style="rounded=0;whiteSpace=wrap;html=1;fillColor=#dae8fc;strokeColor=#6c8ebf;labelPosition=right;verticalLabelPosition=middle;align=left;verticalAlign=middle;spacing=7;" parent="LbffNxMu1DLhnjCqcATJ-8" vertex="1">
          <mxGeometry x="20" y="210" width="70" height="30" as="geometry" />
        </mxCell>
        <mxCell id="OiGLj_DlRbiztUVWyKpy-9" value="rw without login" style="rounded=0;whiteSpace=wrap;html=1;labelPosition=right;verticalLabelPosition=middle;align=left;verticalAlign=middle;spacing=7;" parent="LbffNxMu1DLhnjCqcATJ-8" vertex="1">
          <mxGeometry x="20" y="50" width="70" height="30" as="geometry" />
        </mxCell>
        <mxCell id="XyD-ON7FCZBojSZJl-00-3" value="user ro&lt;br&gt;admin ro" style="rounded=0;whiteSpace=wrap;html=1;fillColor=#ffe6cc;strokeColor=#d79b00;labelPosition=right;verticalLabelPosition=middle;align=left;verticalAlign=middle;spacing=7;" parent="LbffNxMu1DLhnjCqcATJ-8" vertex="1">
          <mxGeometry x="20" y="170" width="70" height="30" as="geometry" />
        </mxCell>
        <mxCell id="LbffNxMu1DLhnjCqcATJ-7" value="user --&lt;br&gt;admin rw" style="rounded=0;whiteSpace=wrap;html=1;fillColor=#e1d5e7;strokeColor=#9673a6;labelPosition=right;verticalLabelPosition=middle;align=left;verticalAlign=middle;spacing=7;" parent="LbffNxMu1DLhnjCqcATJ-8" vertex="1">
          <mxGeometry x="20" y="250" width="70" height="30" as="geometry" />
        </mxCell>
      </root>
    </mxGraphModel>
  </diagram>
</mxfile>
